<svg width="61" height="61" viewBox="0 0 61 61" fill="none" xmlns="http://www.w3.org/2000/svg">
<path d="M30.5 61C47.3447 61 61 47.3447 61 30.5C61 13.6553 47.3447 0 30.5 0C13.6553 0 0 13.6553 0 30.5C0 47.3447 13.6553 61 30.5 61Z" fill="#000C25"/>
<path d="M30.5 54.0249C43.4273 54.0249 53.907 43.5452 53.907 30.6179C53.907 17.6906 43.4273 7.21094 30.5 7.21094C17.5727 7.21094 7.09302 17.6906 7.09302 30.6179C7.09302 43.5452 17.5727 54.0249 30.5 54.0249Z" fill="white"/>
<path d="M30.3675 21.1268L17.4945 33.9999L23.6033 40.1087L36.4764 27.2357L30.3675 21.1268Z" fill="#000C25"/>
<path d="M30.3915 21.1275L24.2827 27.2363L37.1557 40.1094L43.2646 34.0005L30.3915 21.1275Z" fill="#000C25"/>
</svg>
