<svg width="61" height="61" viewBox="0 0 61 61" fill="none" xmlns="http://www.w3.org/2000/svg">
<path d="M30.5 61C47.3447 61 61 47.3447 61 30.5C61 13.6553 47.3447 0 30.5 0C13.6553 0 0 13.6553 0 30.5C0 47.3447 13.6553 61 30.5 61Z" fill="#000C25"/>
<path d="M30.4999 53.907C43.4272 53.907 53.9069 43.4273 53.9069 30.5C53.9069 17.5727 43.4272 7.09302 30.4999 7.09302C17.5726 7.09302 7.09296 17.5727 7.09296 30.5C7.09296 43.4273 17.5726 53.907 30.4999 53.907Z" fill="white"/>
<path d="M30.367 12.616L17.494 25.489L23.6028 31.5979L36.4759 18.7248L30.367 12.616Z" fill="#000C25"/>
<path d="M30.3909 12.6164L24.282 18.7252L37.1551 31.5983L43.2639 25.4894L30.3909 12.6164Z" fill="#000C25"/>
<path d="M30.6033 27.9844L17.7303 40.8574L23.8391 46.9663L36.7122 34.0932L30.6033 27.9844Z" fill="#000C25"/>
<path d="M30.6272 27.9845L24.5184 34.0934L37.3914 46.9664L43.5003 40.8576L30.6272 27.9845Z" fill="#000C25"/>
</svg>
