<svg width="216" height="81" viewBox="0 0 216 81" fill="none" xmlns="http://www.w3.org/2000/svg">
<path d="M25.0782 47.8625L35.6829 35.0698H52.0845L33.8943 58.0285L38.8414 80.9872H22.4397L19.1924 68.2702L15.5518 80.9872H0L13.2304 35.0698H28.7822L25.0782 47.8625Z" fill="black"/>
<path d="M44.4483 66.5152H47.9366L52.8077 49.5677H49.3193L53.4927 35.0828H76.0846L71.9113 49.5677H68.3468L63.4758 66.5152H67.0402L62.8669 81.0001H40.2749L44.4483 66.5152Z" fill="black"/>
<path d="M113.48 36.0425C114.025 36.6866 114.431 37.4443 114.723 38.3157C115.002 39.187 115.192 40.071 115.268 40.9677C115.345 41.8643 115.306 42.5715 115.154 43.0892L111.514 55.7178H95.9619L97.3572 50.8684C97.5602 50.2496 97.3699 49.8834 96.7737 49.7571C96.1776 49.6308 95.6575 49.5677 95.1881 49.5677H94.186C93.7674 49.5677 93.2473 49.6308 92.6004 49.7571C91.9534 49.8834 91.5348 50.2623 91.3192 50.8684L87.222 65.2018C87.019 65.8206 87.2093 66.1868 87.8055 66.3131C88.4016 66.4394 88.8964 66.5025 89.315 66.5025H90.3171C90.7864 66.5025 91.3319 66.4394 91.9788 66.3131C92.6258 66.1868 93.0443 65.808 93.26 65.2018L94.6553 60.3524H110.207L106.567 72.981C106.414 73.4987 106.034 74.2059 105.45 75.1026C104.854 75.9992 104.156 76.8832 103.357 77.7546C102.558 78.6259 101.708 79.3836 100.808 80.0277C99.9069 80.6718 99.0697 80.9875 98.2959 80.9875H73.0655C72.2917 80.9875 71.6321 80.6718 71.0867 80.0277C70.5412 79.3836 70.1353 78.6259 69.8435 77.7546C69.5644 76.8832 69.3742 75.9992 69.2981 75.1026C69.222 74.2059 69.26 73.4987 69.4122 72.981L77.9999 43.0892C78.1522 42.5715 78.5327 41.8643 79.1162 40.9677C79.7124 40.071 80.4101 39.187 81.2092 38.3157C82.0084 37.4443 82.8583 36.6866 83.7589 36.0425C84.6596 35.3985 85.4968 35.0828 86.2706 35.0828H111.501C112.275 35.0828 112.934 35.3985 113.48 36.0425Z" fill="black"/>
<path d="M134.195 47.8625L144.799 35.0698H161.201L143.011 58.0285L147.958 80.9872H131.556L128.309 68.2702L124.668 80.9872H109.116L122.347 35.0698H137.899L134.195 47.8625Z" fill="black"/>
<path d="M149.784 81.0001L153.958 66.5152H169.281L165.108 81.0001H149.784ZM169.915 64.2799H154.592L163.027 35.0828H178.351L169.915 64.2799Z" fill="black"/>
<path d="M179.556 25.8506L185.366 13.5252L180.672 13.5504L187.028 0.833483L194.296 0L187.421 10.6711L195.146 10.0271L179.556 25.8506Z" fill="black"/>
<path d="M185.429 28.2879L195.45 19.208L191.099 17.3769L201.78 8.17065L208.795 10.2796L198.419 17.3895L205.789 19.852L185.429 28.2879Z" fill="black"/>
<path d="M187.294 33.1751L200.169 29.4623L197.036 25.8758L210.571 22.3271L216 27.3407L203.632 29.1339L209.214 34.6273L187.294 33.1751Z" fill="black"/>
</svg>
