<svg width="118" height="59" viewBox="0 0 118 59" fill="none" xmlns="http://www.w3.org/2000/svg">
<path d="M31.6757 22.1756L36.3595 16.5158H43.6036L35.5695 26.6733L37.7545 36.8308H30.5104L29.0761 31.2045L27.4682 36.8308H20.5995L26.4429 16.5158H33.3117L31.6757 22.1756Z" fill="#E5221B"/>
<path d="M40.2309 30.4279H41.7716L43.923 22.9299H42.3823L44.2255 16.5214H54.2037L52.3604 22.9299H50.7861L48.6347 30.4279H50.2091L48.3658 36.8364H38.3876L40.2309 30.4279Z" fill="#E5221B"/>
<path d="M70.72 16.946C70.9609 17.231 71.1402 17.5662 71.2691 17.9517C71.3923 18.3372 71.4764 18.7283 71.51 19.125C71.5436 19.5217 71.5268 19.8346 71.4596 20.0637L69.8516 25.6509H62.9829L63.5992 23.5054C63.6888 23.2316 63.6048 23.0696 63.3414 23.0137C63.0781 22.9578 62.8484 22.9299 62.6411 22.9299H62.1985C62.0136 22.9299 61.7839 22.9578 61.4982 23.0137C61.2125 23.0696 61.0276 23.2372 60.9323 23.5054L59.1227 29.8468C59.0331 30.1206 59.1171 30.2826 59.3804 30.3385C59.6438 30.3944 59.8623 30.4223 60.0471 30.4223H60.4897C60.697 30.4223 60.9379 30.3944 61.2237 30.3385C61.5094 30.2826 61.6943 30.115 61.7895 29.8468L62.4058 27.7014H69.2746L67.6666 33.2885C67.5994 33.5176 67.4313 33.8305 67.1736 34.2272C66.9103 34.6239 66.6021 35.015 66.2492 35.4005C65.8962 35.786 65.5208 36.1212 65.1231 36.4062C64.7253 36.6911 64.3555 36.8308 64.0137 36.8308H52.8702C52.5285 36.8308 52.2372 36.6911 51.9963 36.4062C51.7553 36.1212 51.576 35.786 51.4472 35.4005C51.3239 35.015 51.2399 34.6239 51.2063 34.2272C51.1727 33.8305 51.1895 33.5176 51.2567 33.2885L55.0496 20.0637C55.1169 19.8346 55.285 19.5217 55.5427 19.125C55.806 18.7283 56.1141 18.3372 56.4671 17.9517C56.82 17.5662 57.1954 17.231 57.5932 16.946C57.991 16.6611 58.3608 16.5214 58.7025 16.5214H69.846C70.1878 16.5214 70.4791 16.6611 70.72 16.946Z" fill="#E5221B"/>
<path d="M79.8691 22.1756L84.5528 16.5158H91.7969L83.7628 26.6733L85.9479 36.8308H78.7037L77.2695 31.2045L75.6615 36.8308H68.7928L74.6363 16.5158H81.505L79.8691 22.1756Z" fill="#E5221B"/>
<path d="M86.7546 36.8364L88.5979 30.4279H95.3658L93.5225 36.8364H86.7546ZM95.6459 29.439H88.878L92.6037 16.5214H99.3716L95.6459 29.439Z" fill="#F4E600"/>
<path d="M110.659 46.8591C110.659 45.0377 110.071 43.3392 109.057 41.9033C107.247 39.3444 104.07 37.6459 100.457 37.6459C96.8431 37.6459 93.6721 39.3444 91.8512 41.9033H19.1523C18.4184 40.9926 17.4884 40.2104 16.4183 39.5958L24.7997 10.4978H35.4446V5.15082H20.2168L10.9165 38.1264C10.8605 38.1208 10.7989 38.1208 10.7429 38.1208C6.16557 38.1208 2.28859 40.7077 1 44.2723H3.51555C2.5351 45.6803 1.96364 47.3955 1.96364 49.2449C1.96364 54.0834 5.89104 58 10.7429 58C15.5947 58 19.5221 54.0834 19.5221 49.2449C19.5221 48.513 19.4324 47.7978 19.2588 47.1162H91.9353C91.7784 47.7196 91.6888 48.3565 91.672 49.0102C91.6663 49.0884 91.6663 49.1667 91.6663 49.2449C91.6663 49.9042 91.7392 50.5467 91.8792 51.1613C92.7532 55.0779 96.2548 58 100.446 58C104.636 58 108.138 55.0723 109.012 51.1613C109.152 50.5467 109.225 49.9042 109.225 49.2449C109.225 48.513 109.135 47.7978 108.961 47.1162H110.642C110.659 47.0268 110.659 46.9485 110.659 46.8591ZM15.7291 49.2449C15.7291 51.9882 13.4993 54.2175 10.7429 54.2175C7.992 54.2175 5.75657 51.9938 5.75657 49.2449C5.75657 47.0715 7.15161 45.2277 9.10131 44.5516C9.54391 44.3952 10.0145 44.3002 10.5019 44.2779C10.5804 44.2723 10.6588 44.2723 10.7373 44.2723C12.2724 44.2723 13.6394 44.9651 14.5526 46.0546C14.8215 46.3787 15.0568 46.7307 15.2361 47.1162C15.5555 47.7587 15.7291 48.4794 15.7291 49.2449ZM100.451 54.2119C97.7003 54.2119 95.4649 51.9882 95.4649 49.2393C95.4649 48.4794 95.633 47.7531 95.9467 47.1106C96.5126 45.9205 97.5434 44.9874 98.8096 44.5516C99.2522 44.3952 99.7228 44.3002 100.21 44.2779C100.289 44.2723 100.367 44.2723 100.446 44.2723C100.524 44.2723 100.608 44.2723 100.681 44.2835C102.121 44.3449 103.398 45.021 104.261 46.0546C104.53 46.3787 104.765 46.7307 104.944 47.1162C105.258 47.7587 105.426 48.485 105.426 49.2449C105.437 51.9882 103.208 54.2119 100.451 54.2119Z" fill="#161930"/>
<path d="M99.9038 12.437L102.47 6.98387L100.397 6.99505L103.204 1.36875L106.414 1L103.377 5.72117L106.789 5.43623L99.9038 12.437Z" fill="#F7E926"/>
<path d="M102.498 13.5153L106.924 9.49811L105.002 8.68796L109.72 4.61491L112.818 5.54797L108.235 8.69355L111.49 9.78305L102.498 13.5153Z" fill="#F7E926"/>
<path d="M103.321 15.6775L109.008 14.0349L107.624 12.4481L113.602 10.8781L116 13.0962L110.537 13.8896L113.003 16.3201L103.321 15.6775Z" fill="#F7E926"/>
<path d="M31.6757 22.1756L31.1954 22.0367L30.5275 24.3473L32.0609 22.4944L31.6757 22.1756ZM36.3595 16.5158V16.0158H36.1243L35.9743 16.197L36.3595 16.5158ZM43.6036 16.5158L43.9958 16.8259L44.6366 16.0158H43.6036V16.5158ZM35.5695 26.6733L35.1774 26.3631L35.0311 26.548L35.0807 26.7784L35.5695 26.6733ZM37.7545 36.8308V37.3308H38.3735L38.2433 36.7256L37.7545 36.8308ZM30.5104 36.8308L30.0259 36.9543L30.1219 37.3308H30.5104V36.8308ZM29.0761 31.2045L29.5607 31.081L29.1037 29.2885L28.5954 31.0671L29.0761 31.2045ZM27.4682 36.8308V37.3308H27.8453L27.949 36.9682L27.4682 36.8308ZM20.5995 36.8308L20.1189 36.6925L19.9354 37.3308H20.5995V36.8308ZM26.4429 16.5158V16.0158H26.0665L25.9624 16.3775L26.4429 16.5158ZM33.3117 16.5158L33.792 16.6546L33.9767 16.0158H33.3117V16.5158ZM40.2309 30.4279V29.9279H39.8544L39.7504 30.2897L40.2309 30.4279ZM41.7716 30.4279V30.9279H42.1483L42.2522 30.5658L41.7716 30.4279ZM43.923 22.9299L44.4036 23.0678L44.5866 22.4299H43.923V22.9299ZM42.3823 22.9299L41.9017 22.7917L41.7182 23.4299H42.3823V22.9299ZM44.2255 16.5214V16.0214H43.8491L43.745 16.3832L44.2255 16.5214ZM54.2037 16.5214L54.6842 16.6596L54.8678 16.0214H54.2037V16.5214ZM52.3604 22.9299V23.4299H52.7369L52.841 23.0681L52.3604 22.9299ZM50.7861 22.9299V22.4299H50.4094L50.3055 22.792L50.7861 22.9299ZM48.6347 30.4279L48.1541 30.29L47.9711 30.9279H48.6347V30.4279ZM50.2091 30.4279L50.6896 30.5661L50.8731 29.9279H50.2091V30.4279ZM48.3658 36.8364V37.3364H48.7423L48.8463 36.9746L48.3658 36.8364ZM38.3876 36.8364L37.9071 36.6982L37.7235 37.3364H38.3876V36.8364ZM71.2691 17.9517L71.7454 17.7994L71.7433 17.7932L71.2691 17.9517ZM71.4596 20.0637L70.9798 19.9229L70.9791 19.9254L71.4596 20.0637ZM69.8516 25.6509V26.1509H70.228L70.3321 25.7891L69.8516 25.6509ZM62.9829 25.6509L62.5023 25.5128L62.319 26.1509H62.9829V25.6509ZM63.5992 23.5054L63.124 23.3498L63.1211 23.3585L63.1186 23.3673L63.5992 23.5054ZM60.9323 23.5054L60.4612 23.3381L60.4559 23.353L60.4515 23.3682L60.9323 23.5054ZM59.1227 29.8468L59.5979 30.0024L59.6009 29.9933L59.6035 29.984L59.1227 29.8468ZM61.7895 29.8468L62.2607 30.0142L62.2658 29.9997L62.2701 29.9849L61.7895 29.8468ZM62.4058 27.7014V27.2014H62.0292L61.9252 27.5633L62.4058 27.7014ZM69.2746 27.7014L69.7551 27.8396L69.9388 27.2014H69.2746V27.7014ZM67.6666 33.2885L68.1464 33.4294L68.1471 33.4268L67.6666 33.2885ZM67.1736 34.2272L67.5902 34.5037L67.5929 34.4996L67.1736 34.2272ZM51.4472 35.4005L50.9709 35.5528L50.973 35.559L51.4472 35.4005ZM51.2567 33.2885L51.7365 33.4294L51.7373 33.4264L51.2567 33.2885ZM55.0496 20.0637L54.5699 19.9229L54.569 19.9258L55.0496 20.0637ZM55.5427 19.125L55.1261 18.8485L55.1234 18.8526L55.5427 19.125ZM69.846 16.5214V16.0214V16.5214ZM79.8691 22.1756L79.3887 22.0367L78.7209 24.3473L80.2543 22.4944L79.8691 22.1756ZM84.5528 16.5158V16.0158H84.3176L84.1676 16.197L84.5528 16.5158ZM91.7969 16.5158L92.1891 16.8259L92.8299 16.0158H91.7969V16.5158ZM83.7628 26.6733L83.3707 26.3631L83.2245 26.548L83.274 26.7784L83.7628 26.6733ZM85.9479 36.8308V37.3308H86.5668L86.4367 36.7256L85.9479 36.8308ZM78.7037 36.8308L78.2192 36.9543L78.3152 37.3308H78.7037V36.8308ZM77.2695 31.2045L77.754 31.081L77.297 29.2885L76.7887 31.0671L77.2695 31.2045ZM75.6615 36.8308V37.3308H76.0387L76.1423 36.9682L75.6615 36.8308ZM68.7928 36.8308L68.3123 36.6925L68.1287 37.3308H68.7928V36.8308ZM74.6363 16.5158V16.0158H74.2598L74.1558 16.3775L74.6363 16.5158ZM81.505 16.5158L81.9853 16.6546L82.17 16.0158H81.505V16.5158ZM86.7546 36.8364L86.2741 36.6982L86.0905 37.3364H86.7546V36.8364ZM88.5979 30.4279V29.9279H88.2214L88.1173 30.2897L88.5979 30.4279ZM95.3658 30.4279L95.8463 30.5661L96.0299 29.9279H95.3658V30.4279ZM93.5225 36.8364V37.3364H93.899L94.003 36.9746L93.5225 36.8364ZM95.6459 29.439V29.939H96.0221L96.1263 29.5775L95.6459 29.439ZM88.878 29.439L88.3976 29.3004L88.2134 29.939H88.878V29.439ZM92.6037 16.5214V16.0214H92.2275L92.1233 16.3828L92.6037 16.5214ZM99.3716 16.5214L99.852 16.66L100.036 16.0214H99.3716V16.5214ZM109.057 41.9033L109.465 41.6149L109.465 41.6146L109.057 41.9033ZM91.8512 41.9033V42.4033H92.1091L92.2586 42.1932L91.8512 41.9033ZM19.1523 41.9033L18.763 42.2171L18.9131 42.4033H19.1523V41.9033ZM16.4183 39.5958L15.9378 39.4574L15.8293 39.8341L16.1692 40.0294L16.4183 39.5958ZM24.7997 10.4978V9.99775H24.4234L24.3192 10.3594L24.7997 10.4978ZM35.4446 10.4978V10.9978H35.9446V10.4978H35.4446ZM35.4446 5.15082H35.9446V4.65082H35.4446V5.15082ZM20.2168 5.15082V4.65082H19.8383L19.7356 5.0151L20.2168 5.15082ZM10.9165 38.1264L10.8669 38.6239L11.284 38.6655L11.3978 38.2621L10.9165 38.1264ZM1 44.2723L0.529781 44.1023L0.287586 44.7723H1V44.2723ZM3.51555 44.2723L3.92586 44.558L4.47301 43.7723H3.51555V44.2723ZM19.2588 47.1162V46.6162H18.6154L18.7742 47.2396L19.2588 47.1162ZM91.9353 47.1162L92.4192 47.242L92.5819 46.6162H91.9353V47.1162ZM91.672 49.0102L92.1707 49.0459L92.1715 49.0345L92.1718 49.0231L91.672 49.0102ZM91.8792 51.1613L92.3672 51.0524L92.3667 51.0502L91.8792 51.1613ZM109.012 51.1613L108.524 51.0502L108.524 51.0522L109.012 51.1613ZM108.961 47.1162V46.6162H108.318L108.477 47.2396L108.961 47.1162ZM110.642 47.1162V47.6162H111.057L111.134 47.2086L110.642 47.1162ZM9.10131 44.5516L9.26512 45.0241L9.26793 45.0231L9.10131 44.5516ZM10.5019 44.2779L10.5249 44.7775L10.5375 44.7766L10.5019 44.2779ZM14.5526 46.0546L14.9374 45.7353L14.9358 45.7334L14.5526 46.0546ZM15.2361 47.1162L14.7826 47.3271L14.7884 47.3387L15.2361 47.1162ZM95.9467 47.1106L96.396 47.33L96.3983 47.3253L95.9467 47.1106ZM98.8096 44.5516L98.9723 45.0244L98.9762 45.0231L98.8096 44.5516ZM100.21 44.2779L100.233 44.7775L100.246 44.7766L100.21 44.2779ZM100.681 44.2835L100.605 44.7777L100.632 44.7818L100.66 44.783L100.681 44.2835ZM104.261 46.0546L104.646 45.7353L104.645 45.7342L104.261 46.0546ZM104.944 47.1162L104.491 47.327L104.495 47.3356L104.944 47.1162ZM105.426 49.2449H104.926L104.926 49.2469L105.426 49.2449ZM99.9038 12.437L99.4514 12.2241L98.2011 14.8813L100.26 12.7876L99.9038 12.437ZM102.47 6.98387L102.922 7.19676L103.26 6.47961L102.467 6.48388L102.47 6.98387ZM100.397 6.99505L99.9494 6.77184L99.5865 7.49943L100.4 7.49504L100.397 6.99505ZM103.204 1.36875L103.147 0.87202L102.877 0.902957L102.756 1.14555L103.204 1.36875ZM106.414 1L106.835 1.27048L107.405 0.382827L106.357 0.503266L106.414 1ZM103.377 5.72117L102.957 5.45069L102.408 6.30386L103.419 6.21944L103.377 5.72117ZM106.789 5.43623L107.146 5.78683L108.091 4.82577L106.748 4.93796L106.789 5.43623ZM102.498 13.5153L102.162 13.1451L100.028 15.0818L102.689 13.9771L102.498 13.5153ZM106.924 9.49811L107.26 9.86834L107.84 9.34175L107.118 9.03737L106.924 9.49811ZM105.002 8.68796L104.675 8.30951L104.066 8.83584L104.808 9.1487L105.002 8.68796ZM109.72 4.61491L109.864 4.13615L109.601 4.05693L109.393 4.23645L109.72 4.61491ZM112.818 5.54797L113.101 5.9602L113.961 5.36997L112.962 5.06921L112.818 5.54797ZM108.235 8.69355L107.952 8.28131L107.125 8.84919L108.076 9.1677L108.235 8.69355ZM111.49 9.78305L111.682 10.2449L112.915 9.73284L111.649 9.30891L111.49 9.78305ZM103.321 15.6775L103.183 15.1972L100.446 15.9878L103.288 16.1764L103.321 15.6775ZM109.008 14.0349L109.147 14.5153L109.9 14.2975L109.385 13.7063L109.008 14.0349ZM107.624 12.4481L107.497 11.9645L106.718 12.1693L107.247 12.7768L107.624 12.4481ZM113.602 10.8781L113.942 10.5111L113.74 10.3249L113.475 10.3945L113.602 10.8781ZM116 13.0962L116.072 13.5911L117.108 13.4405L116.34 12.7292L116 13.0962ZM110.537 13.8896L110.466 13.3948L109.47 13.5394L110.186 14.2457L110.537 13.8896ZM113.003 16.3201L112.97 16.819L114.311 16.908L113.354 15.964L113.003 16.3201ZM32.0609 22.4944L36.7447 16.8345L35.9743 16.197L31.2905 21.8568L32.0609 22.4944ZM36.3595 17.0158H43.6036V16.0158H36.3595V17.0158ZM43.2114 16.2056L35.1774 26.3631L35.9617 26.9834L43.9958 16.8259L43.2114 16.2056ZM35.0807 26.7784L37.2657 36.9359L38.2433 36.7256L36.0583 26.5681L35.0807 26.7784ZM37.7545 36.3308H30.5104V37.3308H37.7545V36.3308ZM30.9949 36.7073L29.5607 31.081L28.5916 31.328L30.0259 36.9543L30.9949 36.7073ZM28.5954 31.0671L26.9875 36.6934L27.949 36.9682L29.5569 31.3419L28.5954 31.0671ZM27.4682 36.3308H20.5995V37.3308H27.4682V36.3308ZM21.08 36.969L26.9235 16.654L25.9624 16.3775L20.1189 36.6925L21.08 36.969ZM26.4429 17.0158H33.3117V16.0158H26.4429V17.0158ZM32.8314 16.3769L31.1954 22.0367L32.1561 22.3144L33.792 16.6546L32.8314 16.3769ZM40.2309 30.9279H41.7716V29.9279H40.2309V30.9279ZM42.2522 30.5658L44.4036 23.0678L43.4424 22.792L41.291 30.29L42.2522 30.5658ZM43.923 22.4299H42.3823V23.4299H43.923V22.4299ZM42.8628 23.0681L44.706 16.6596L43.745 16.3832L41.9017 22.7917L42.8628 23.0681ZM44.2255 17.0214H54.2037V16.0214H44.2255V17.0214ZM53.7232 16.3832L51.8799 22.7917L52.841 23.0681L54.6842 16.6596L53.7232 16.3832ZM52.3604 22.4299H50.7861V23.4299H52.3604V22.4299ZM50.3055 22.792L48.1541 30.29L49.1153 30.5658L51.2667 23.0678L50.3055 22.792ZM48.6347 30.9279H50.2091V29.9279H48.6347V30.9279ZM49.7285 30.2897L47.8853 36.6982L48.8463 36.9746L50.6896 30.5661L49.7285 30.2897ZM48.3658 36.3364H38.3876V37.3364H48.3658V36.3364ZM38.8682 36.9746L40.7114 30.5661L39.7504 30.2897L37.9071 36.6982L38.8682 36.9746ZM70.3382 17.2688C70.532 17.4981 70.6828 17.7751 70.7949 18.1102L71.7433 17.7932C71.5976 17.3573 71.3899 16.9639 71.1018 16.6232L70.3382 17.2688ZM70.7928 18.104C70.9063 18.4589 70.9818 18.813 71.0118 19.1672L72.0082 19.0828C71.971 18.6437 71.8784 18.2156 71.7453 17.7995L70.7928 18.104ZM71.0118 19.1672C71.0432 19.5379 71.0218 19.7798 70.9798 19.9229L71.9393 20.2045C72.0318 19.8894 72.044 19.5056 72.0082 19.0828L71.0118 19.1672ZM70.9791 19.9254L69.3711 25.5126L70.3321 25.7891L71.9401 20.202L70.9791 19.9254ZM69.8516 25.1509H62.9829V26.1509H69.8516V25.1509ZM63.4634 25.7889L64.0797 23.6434L63.1186 23.3673L62.5023 25.5128L63.4634 25.7889ZM64.0743 23.661C64.1377 23.4676 64.1789 23.2008 64.0458 22.9462C63.9067 22.6802 63.6532 22.5687 63.4452 22.5246L63.2377 23.5028C63.263 23.5082 63.2586 23.511 63.2395 23.499C63.2168 23.4848 63.1838 23.4558 63.1596 23.4095C63.1361 23.3646 63.1336 23.3279 63.1338 23.3153C63.1339 23.3054 63.1354 23.315 63.124 23.3498L64.0743 23.661ZM63.4452 22.5246C63.1584 22.4637 62.8927 22.4299 62.6411 22.4299V23.4299C62.8042 23.4299 62.9979 23.4519 63.2377 23.5028L63.4452 22.5246ZM62.6411 22.4299H62.1985V23.4299H62.6411V22.4299ZM62.1985 22.4299C61.9678 22.4299 61.7027 22.4643 61.4022 22.523L61.5942 23.5044C61.8652 23.4514 62.0594 23.4299 62.1985 23.4299V22.4299ZM61.4022 22.523C60.9361 22.6141 60.6131 22.9101 60.4612 23.3381L61.4035 23.6727C61.442 23.5643 61.4888 23.525 61.5942 23.5044L61.4022 22.523ZM60.4515 23.3682L58.6419 29.7096L59.6035 29.984L61.4131 23.6426L60.4515 23.3682ZM58.6475 29.6913C58.5842 29.8846 58.543 30.1514 58.6761 30.406C58.8152 30.672 59.0687 30.7835 59.2766 30.8276L59.4842 29.8494C59.4589 29.844 59.4633 29.8412 59.4824 29.8532C59.5051 29.8675 59.5381 29.8964 59.5623 29.9427C59.5858 29.9876 59.5882 30.0243 59.5881 30.0369C59.588 30.0469 59.5865 30.0373 59.5979 30.0024L58.6475 29.6913ZM59.2766 30.8276C59.5589 30.8875 59.8147 30.9223 60.0471 30.9223V29.9223C59.9098 29.9223 59.7286 29.9013 59.4842 29.8494L59.2766 30.8276ZM60.0471 30.9223H60.4897V29.9223H60.0471V30.9223ZM60.4897 30.9223C60.74 30.9223 61.0149 30.8888 61.3196 30.8292L61.1277 29.8478C60.861 29.9 60.6541 29.9223 60.4897 29.9223V30.9223ZM61.3196 30.8292C61.7857 30.7381 62.1087 30.4421 62.2607 30.0142L61.3184 29.6795C61.2798 29.788 61.2331 29.8272 61.1277 29.8478L61.3196 30.8292ZM62.2701 29.9849L62.8864 27.8394L61.9252 27.5633L61.309 29.7088L62.2701 29.9849ZM62.4058 28.2014H69.2746V27.2014H62.4058V28.2014ZM68.7941 27.5631L67.1861 33.1503L68.1471 33.4268L69.7551 27.8396L68.7941 27.5631ZM67.1869 33.1477C67.1418 33.3013 67.0097 33.5618 66.7543 33.9548L67.5929 34.4996C67.853 34.0992 68.057 33.7339 68.1464 33.4293L67.1869 33.1477ZM66.757 33.9507C66.5093 34.3238 66.2175 34.6946 65.8804 35.0629L66.618 35.7381C66.9867 35.3354 67.3112 34.924 67.5902 34.5037L66.757 33.9507ZM65.8804 35.0629C65.5493 35.4245 65.1996 35.7363 64.8319 35.9997L65.4142 36.8127C65.842 36.5062 66.2432 36.1475 66.618 35.7381L65.8804 35.0629ZM64.8319 35.9997C64.4859 36.2476 64.2166 36.3308 64.0137 36.3308V37.3308C64.4944 37.3308 64.9646 37.1347 65.4142 36.8127L64.8319 35.9997ZM64.0137 36.3308H52.8702V37.3308H64.0137V36.3308ZM52.8702 36.3308C52.6875 36.3308 52.5319 36.2654 52.3781 36.0834L51.6144 36.729C51.9424 37.1169 52.3694 37.3308 52.8702 37.3308V36.3308ZM52.3781 36.0834C52.1843 35.8541 52.0334 35.5772 51.9214 35.242L50.973 35.559C51.1187 35.9949 51.3264 36.3884 51.6144 36.729L52.3781 36.0834ZM51.9234 35.2482C51.81 34.8933 51.7345 34.5392 51.7045 34.185L50.7081 34.2694C50.7453 34.7085 50.8379 35.1367 50.9709 35.5528L51.9234 35.2482ZM51.7045 34.185C51.6731 33.8143 51.6945 33.5724 51.7365 33.4293L50.7769 33.1477C50.6845 33.4628 50.6722 33.8467 50.7081 34.2694L51.7045 34.185ZM51.7373 33.4264L55.5303 20.2015L54.569 19.9258L50.7761 33.1507L51.7373 33.4264ZM55.5294 20.2045C55.5745 20.0509 55.7066 19.7905 55.962 19.3974L55.1234 18.8526C54.8633 19.253 54.6593 19.6183 54.5699 19.9229L55.5294 20.2045ZM55.9592 19.4016C56.2069 19.0284 56.4987 18.6576 56.8359 18.2894L56.0983 17.6141C55.7295 18.0169 55.405 18.4283 55.1261 18.8485L55.9592 19.4016ZM56.8359 18.2894C57.167 17.9277 57.5166 17.6159 57.8844 17.3525L57.302 16.5396C56.8742 16.846 56.4731 17.2047 56.0983 17.6141L56.8359 18.2894ZM57.8844 17.3525C58.2303 17.1047 58.4996 17.0214 58.7025 17.0214V16.0214C58.2219 16.0214 57.7516 16.2175 57.302 16.5396L57.8844 17.3525ZM58.7025 17.0214H69.846V16.0214H58.7025V17.0214ZM69.846 17.0214C70.0287 17.0214 70.1843 17.0868 70.3382 17.2688L71.1018 16.6232C70.7739 16.2353 70.3468 16.0214 69.846 16.0214V17.0214ZM80.2543 22.4944L84.938 16.8345L84.1676 16.197L79.4839 21.8568L80.2543 22.4944ZM84.5528 17.0158H91.7969V16.0158H84.5528V17.0158ZM91.4048 16.2056L83.3707 26.3631L84.155 26.9834L92.1891 16.8259L91.4048 16.2056ZM83.274 26.7784L85.459 36.9359L86.4367 36.7256L84.2517 26.5681L83.274 26.7784ZM85.9479 36.3308H78.7037V37.3308H85.9479V36.3308ZM79.1882 36.7073L77.754 31.081L76.785 31.328L78.2192 36.9543L79.1882 36.7073ZM76.7887 31.0671L75.1808 36.6934L76.1423 36.9682L77.7502 31.3419L76.7887 31.0671ZM75.6615 36.3308H68.7928V37.3308H75.6615V36.3308ZM69.2733 36.969L75.1168 16.654L74.1558 16.3775L68.3123 36.6925L69.2733 36.969ZM74.6363 17.0158H81.505V16.0158H74.6363V17.0158ZM81.0247 16.3769L79.3887 22.0367L80.3494 22.3144L81.9853 16.6546L81.0247 16.3769ZM87.2351 36.9746L89.0784 30.5661L88.1173 30.2897L86.2741 36.6982L87.2351 36.9746ZM88.5979 30.9279H95.3658V29.9279H88.5979V30.9279ZM94.8852 30.2897L93.042 36.6982L94.003 36.9746L95.8463 30.5661L94.8852 30.2897ZM93.5225 36.3364H86.7546V37.3364H93.5225V36.3364ZM95.6459 28.939H88.878V29.939H95.6459V28.939ZM89.3584 29.5775L93.0841 16.66L92.1233 16.3828L88.3976 29.3004L89.3584 29.5775ZM92.6037 17.0214H99.3716V16.0214H92.6037V17.0214ZM98.8912 16.3828L95.1655 29.3004L96.1263 29.5775L99.852 16.66L98.8912 16.3828ZM111.159 46.8591C111.159 44.9272 110.534 43.129 109.465 41.6149L108.648 42.1918C109.607 43.5494 110.159 45.1483 110.159 46.8591H111.159ZM109.465 41.6146C107.558 38.9175 104.226 37.1459 100.457 37.1459V38.1459C103.915 38.1459 106.937 39.7713 108.648 42.192L109.465 41.6146ZM100.457 37.1459C96.6873 37.1459 93.3619 38.9179 91.4438 41.6134L92.2586 42.1932C93.9822 39.7709 96.9989 38.1459 100.457 38.1459V37.1459ZM91.8512 41.4033H19.1523V42.4033H91.8512V41.4033ZM19.5416 41.5896C18.7661 40.6273 17.7874 39.8055 16.6673 39.1622L16.1692 40.0294C17.1893 40.6153 18.0706 41.3579 18.763 42.2171L19.5416 41.5896ZM16.8987 39.7342L25.2802 10.6361L24.3192 10.3594L15.9378 39.4574L16.8987 39.7342ZM24.7997 10.9978H35.4446V9.99775H24.7997V10.9978ZM35.9446 10.4978V5.15082H34.9446V10.4978H35.9446ZM35.4446 4.65082H20.2168V5.65082H35.4446V4.65082ZM19.7356 5.0151L10.4353 37.9907L11.3978 38.2621L20.698 5.28654L19.7356 5.0151ZM10.9662 37.6289C10.8809 37.6203 10.7936 37.6208 10.7429 37.6208V38.6208C10.8042 38.6208 10.8401 38.6212 10.8669 38.6239L10.9662 37.6289ZM10.7429 37.6208C5.98977 37.6208 1.90112 40.3088 0.529781 44.1023L1.47022 44.4423C2.67606 41.1066 6.34136 38.6208 10.7429 38.6208V37.6208ZM1 44.7723H3.51555V43.7723H1V44.7723ZM3.10523 43.9866C2.06772 45.4765 1.46364 47.2911 1.46364 49.2449H2.46364C2.46364 47.5 3.00248 45.884 3.92586 44.558L3.10523 43.9866ZM1.46364 49.2449C1.46364 54.3608 5.6162 58.5 10.7429 58.5V57.5C6.16589 57.5 2.46364 53.8059 2.46364 49.2449H1.46364ZM10.7429 58.5C15.8695 58.5 20.0221 54.3608 20.0221 49.2449H19.0221C19.0221 53.8059 15.3198 57.5 10.7429 57.5V58.5ZM20.0221 49.2449C20.0221 48.4722 19.9275 47.7155 19.7433 46.9927L18.7742 47.2396C18.9374 47.8801 19.0221 48.5537 19.0221 49.2449H20.0221ZM19.2588 47.6162H91.9353V46.6162H19.2588V47.6162ZM91.4513 46.9904C91.2846 47.6316 91.1899 48.3065 91.1721 48.9974L92.1718 49.0231C92.1876 48.4065 92.2721 47.8075 92.4192 47.242L91.4513 46.9904ZM91.1732 48.9745C91.1661 49.0735 91.1663 49.1696 91.1663 49.2449H92.1663C92.1663 49.1638 92.1666 49.1034 92.1707 49.0459L91.1732 48.9745ZM91.1663 49.2449C91.1663 49.941 91.2432 50.6208 91.3917 51.2724L92.3667 51.0502C92.2351 50.4726 92.1663 49.8673 92.1663 49.2449H91.1663ZM91.3912 51.2702C92.3154 55.4116 96.0169 58.5 100.446 58.5V57.5C96.4928 57.5 93.1911 54.7442 92.3672 51.0524L91.3912 51.2702ZM100.446 58.5C104.875 58.5 108.576 55.4058 109.5 51.2703L108.524 51.0522C107.7 54.7389 104.398 57.5 100.446 57.5V58.5ZM109.499 51.2724C109.648 50.6208 109.725 49.941 109.725 49.2449H108.725C108.725 49.8674 108.656 50.4726 108.524 51.0502L109.499 51.2724ZM109.725 49.2449C109.725 48.4722 109.63 47.7155 109.446 46.9927L108.477 47.2396C108.64 47.8801 108.725 48.5537 108.725 49.2449H109.725ZM108.961 47.6162H110.642V46.6162H108.961V47.6162ZM111.134 47.2086C111.16 47.067 111.159 46.9443 111.159 46.8591H110.159C110.159 46.9528 110.158 46.9865 110.151 47.0238L111.134 47.2086ZM15.2291 49.2449C15.2291 51.7111 13.2241 53.7175 10.7429 53.7175V54.7175C13.7745 54.7175 16.2291 52.2653 16.2291 49.2449H15.2291ZM10.7429 53.7175C8.26648 53.7175 6.25657 51.716 6.25657 49.2449H5.25657C5.25657 52.2716 7.71752 54.7175 10.7429 54.7175V53.7175ZM6.25657 49.2449C6.25657 47.2917 7.50979 45.6327 9.26511 45.0241L8.9375 44.0792C6.79344 44.8227 5.25657 46.8513 5.25657 49.2449H6.25657ZM9.26793 45.0231C9.66541 44.8826 10.0876 44.7974 10.5249 44.7774L10.479 43.7784C9.9414 43.8031 9.42241 43.9078 8.93468 44.0802L9.26793 45.0231ZM10.5375 44.7766C10.5952 44.7725 10.6559 44.7723 10.7373 44.7723V43.7723C10.6618 43.7723 10.5655 43.7721 10.4664 43.7791L10.5375 44.7766ZM10.7373 44.7723C12.1179 44.7723 13.3469 45.3945 14.1694 46.3758L14.9358 45.7334C13.9319 44.5357 12.4268 43.7723 10.7373 43.7723V44.7723ZM14.1678 46.3739C14.4149 46.6716 14.6249 46.9876 14.7828 47.327L15.6895 46.9053C15.4888 46.4737 15.2282 46.0857 14.9374 45.7353L14.1678 46.3739ZM14.7884 47.3387C15.0731 47.9116 15.2291 48.5561 15.2291 49.2449H16.2291C16.2291 48.4028 16.0378 47.6058 15.6839 46.8936L14.7884 47.3387ZM100.451 53.7119C97.9748 53.7119 95.9649 51.7104 95.9649 49.2393H94.9649C94.9649 52.266 97.4258 54.7119 100.451 54.7119V53.7119ZM95.9649 49.2393C95.9649 48.5532 96.1166 47.9022 96.396 47.33L95.4974 46.8912C95.1493 47.6041 94.9649 48.4057 94.9649 49.2393H95.9649ZM96.3983 47.3253C96.907 46.2554 97.8344 45.4161 98.9723 45.0244L98.6469 44.0789C97.2524 44.5588 96.1181 45.5857 95.4951 46.8959L96.3983 47.3253ZM98.9762 45.0231C99.3737 44.8826 99.7959 44.7974 100.233 44.7774L100.187 43.7784C99.6497 43.8031 99.1307 43.9078 98.643 44.0802L98.9762 45.0231ZM100.246 44.7766C100.304 44.7725 100.364 44.7723 100.446 44.7723V43.7723C100.37 43.7723 100.274 43.7721 100.175 43.7791L100.246 44.7766ZM100.446 44.7723C100.534 44.7723 100.577 44.7734 100.605 44.7777L100.757 43.7892C100.639 43.7712 100.514 43.7723 100.446 43.7723V44.7723ZM100.66 44.783C101.953 44.8382 103.101 45.4451 103.877 46.375L104.645 45.7342C103.695 44.5968 102.288 43.8516 100.702 43.7839L100.66 44.783ZM103.876 46.3739C104.123 46.6716 104.333 46.9876 104.491 47.327L105.398 46.9053C105.197 46.4737 104.936 46.0857 104.646 45.7353L103.876 46.3739ZM104.495 47.3356C104.775 47.9077 104.926 48.5588 104.926 49.2449H105.926C105.926 48.4113 105.742 47.6096 105.394 46.8968L104.495 47.3356ZM104.926 49.2469C104.936 51.7104 102.934 53.7119 100.451 53.7119V54.7119C103.482 54.7119 105.939 52.2659 105.926 49.2428L104.926 49.2469ZM100.356 12.6499L102.922 7.19676L102.017 6.77099L99.4514 12.2241L100.356 12.6499ZM102.467 6.48388L100.394 6.49506L100.4 7.49504L102.473 7.48387L102.467 6.48388ZM100.844 7.21826L103.651 1.59196L102.756 1.14555L99.9494 6.77184L100.844 7.21826ZM103.261 1.86549L106.471 1.49673L106.357 0.503266L103.147 0.87202L103.261 1.86549ZM105.993 0.729523L102.957 5.45069L103.798 5.99165L106.835 1.27048L105.993 0.729523ZM103.419 6.21944L106.831 5.93449L106.748 4.93796L103.336 5.22291L103.419 6.21944ZM106.433 5.08562L99.5474 12.0864L100.26 12.7876L107.146 5.78683L106.433 5.08562ZM102.834 13.8855L107.26 9.86834L106.588 9.12786L102.162 13.1451L102.834 13.8855ZM107.118 9.03737L105.196 8.22723L104.808 9.1487L106.73 9.95884L107.118 9.03737ZM105.329 9.06642L110.046 4.99336L109.393 4.23645L104.675 8.30951L105.329 9.06642ZM109.575 5.09367L112.674 6.02673L112.962 5.06921L109.864 4.13615L109.575 5.09367ZM112.535 5.13573L107.952 8.28131L108.518 9.10579L113.101 5.9602L112.535 5.13573ZM108.076 9.1677L111.331 10.2572L111.649 9.30891L108.394 8.21941L108.076 9.1677ZM111.298 9.32125L102.306 13.0535L102.689 13.9771L111.682 10.2449L111.298 9.32125ZM103.46 16.1579L109.147 14.5153L108.869 13.5545L103.183 15.1972L103.46 16.1579ZM109.385 13.7063L108.001 12.1195L107.247 12.7768L108.631 14.3635L109.385 13.7063ZM107.751 12.9317L113.729 11.3617L113.475 10.3945L107.497 11.9645L107.751 12.9317ZM113.263 11.2452L115.66 13.4633L116.34 12.7292L113.942 10.5111L113.263 11.2452ZM115.928 12.6014L110.466 13.3948L110.609 14.3844L116.072 13.5911L115.928 12.6014ZM110.186 14.2457L112.652 16.6761L113.354 15.964L110.889 13.5336L110.186 14.2457ZM113.036 15.8212L103.354 15.1786L103.288 16.1764L112.97 16.819L113.036 15.8212Z" fill="#020203"/>
</svg>
