<svg width="16" height="19" viewBox="0 0 16 19" fill="none" xmlns="http://www.w3.org/2000/svg">
<path d="M5.4662 7.40464L9.11065 12.6782C9.41768 13.1227 10.1115 13.1548 10.6609 12.7506L12.4872 11.4063C13.0358 11.0021 13.7296 11.035 14.0375 11.4787L15.8549 14.1089C16.1619 14.5535 15.9657 15.2417 15.4171 15.6459L11.9983 18.1641C10.3771 19.3578 8.32834 19.2615 7.42081 17.9492L0.548972 8.00559C-0.612151 6.3254 0.128703 3.72321 2.20453 2.19449L4.80031 0.282973C5.34897 -0.121227 6.04277 -0.088298 6.3506 0.355417L8.16804 2.9856C8.47507 3.43014 8.27889 4.11835 7.73023 4.52255L5.90401 5.86687C5.35535 6.27271 5.15917 6.9601 5.4662 7.40464Z" fill="#000C25"/>
</svg>
