<svg width="64" height="64" viewBox="0 0 64 64" fill="none" xmlns="http://www.w3.org/2000/svg">
<circle cx="32" cy="32" r="32" fill="white"/>
<path fill-rule="evenodd" clip-rule="evenodd" d="M7.76613 38.2207L17.7744 40.0845L24.6201 51.9216C25.4578 53.3695 27.5316 53.3568 28.3505 51.8994L31.0737 47.0572L39.8961 52.2137C41.151 52.9472 42.7511 52.2423 43.0742 50.8135L51.9405 11.6761C52.3201 10.006 50.8142 8.74545 49.4023 9.04392C49.0133 9.02487 48.596 9.1233 48.1788 9.37732L7.0508 34.2072C5.34406 35.236 5.81154 37.8555 7.76613 38.2207ZM40.3541 20.7953C40.7494 20.4651 41.2859 20.9858 40.9691 21.3986L27.2179 39.3479C27.2179 39.3542 27.2148 39.3606 27.2148 39.3669C27.2148 39.3733 27.2116 39.3828 27.2116 39.3891L25.5927 47.8955C25.4767 48.5083 24.6547 48.6226 24.3786 48.0637L19.707 38.6112C19.5094 38.208 19.7603 37.7539 20.1588 37.6745L40.3541 20.7953Z" fill="black"/>
</svg>
