<svg width="64" height="64" viewBox="0 0 64 64" fill="none" xmlns="http://www.w3.org/2000/svg">
<circle cx="32" cy="32" r="32" fill="white"/>
<path d="M31.4994 19.5727L24.6887 41.4059C23.938 43.8129 21.703 45.4493 19.1712 45.4493C16.6667 45.4493 14.4487 43.8435 13.6742 41.4738L6.53249 19.5795C6.36529 19.0702 6.74746 18.5508 7.28317 18.5508H14.3464C14.6978 18.5508 15.0083 18.7816 15.1039 19.1177L19.2155 33.2104L19.2258 33.2375C19.4715 33.9709 20.5224 33.9471 20.7374 33.207L24.8218 19.1211C24.9207 18.785 25.2278 18.5542 25.5793 18.5542H30.7351C31.2776 18.5542 31.6598 19.0668 31.4994 19.5727Z" fill="black"/>
<path d="M57.4184 45.4493H50.4976C50.0994 45.4493 49.7394 45.2219 49.5732 44.8655L45.841 36.8656C45.5155 36.1664 44.5357 36.0781 44.0822 36.706L42.4446 38.9835C42.3234 39.1532 42.2576 39.3535 42.2576 39.5571V44.4481C42.2576 44.9979 41.8006 45.4459 41.2398 45.4459H35.3368C34.7759 45.4459 34.3189 44.9979 34.3189 44.4481V19.5521C34.3189 19.0022 34.7759 18.5542 35.3368 18.5542H41.2398C41.8006 18.5542 42.2576 19.0022 42.2576 19.5521V26.3777C42.2576 27.3654 43.5629 27.7523 44.1203 26.9309L49.5178 18.9954C49.7082 18.7171 50.0233 18.5508 50.366 18.5508H55.4485C56.269 18.5508 56.7502 19.4536 56.2863 20.1155L50.7988 27.9084C50.5876 28.2071 50.5599 28.594 50.7226 28.9165L58.3255 44C58.6648 44.6721 58.1732 45.4493 57.4184 45.4493Z" fill="black"/>
</svg>
