<svg width="64" height="64" viewBox="0 0 64 64" fill="none" xmlns="http://www.w3.org/2000/svg">
<circle cx="32" cy="32" r="32" fill="white"/>
<path d="M48.4412 17.6233H14.7468C10.7004 17.6233 7.42029 20.7807 7.42029 24.6728V38.979C7.42029 42.8712 10.7004 46.0286 14.7468 46.0286H48.4412C52.4876 46.0286 55.7648 42.8712 55.7648 38.979V24.6728C55.7648 20.7807 52.4876 17.6233 48.4412 17.6233ZM36.8973 33.4075L32.5445 35.8273L28.1886 38.2471C26.9243 38.9507 25.3417 38.0712 25.3417 36.6642V26.982C25.3417 25.575 26.9243 24.6955 28.1886 25.3991L32.5445 27.8189L36.8973 30.2387C38.1675 30.9451 38.1675 32.7039 36.8973 33.4075Z" fill="black"/>
</svg>
